<?xml version="1.0" standalone="no"?>
<!DOCTYPE svg PUBLIC "-//W3C//DTD SVG 20010904//EN"
 "http://www.w3.org/TR/2001/REC-SVG-20010904/DTD/svg10.dtd">
<svg version="1.0" xmlns="http://www.w3.org/2000/svg"
 width="191.000000pt" height="147.000000pt" viewBox="0 0 191.000000 147.000000"
 preserveAspectRatio="xMidYMid meet">

<g transform="translate(0.000000,147.000000) scale(0.100000,-0.100000)"
fill="#000000" stroke="none">
<path d="M892 1390 c-110 -29 -205 -84 -286 -165 -126 -125 -186 -258 -194
-433 -9 -195 48 -342 188 -483 139 -140 265 -193 460 -193 94 0 128 4 185 23
116 38 184 80 271 166 65 65 90 98 123 167 94 195 93 387 -4 584 -74 152 -200
263 -367 321 -101 36 -270 42 -376 13z m336 -16 c96 -25 191 -82 273 -164 81
-81 117 -135 154 -234 l24 -64 -64 -16 c-78 -20 -95 -20 -95 -2 0 36 -74 156
-128 208 -194 185 -485 184 -671 -3 -54 -53 -121 -166 -121 -202 0 -19 -18
-21 -70 -8 -19 5 -47 12 -62 15 -32 7 -30 18 18 124 73 161 215 286 389 342
96 31 242 33 353 4z m-100 -154 c171 -24 323 -155 374 -323 17 -56 20 -86 16
-161 -3 -50 -11 -103 -18 -119 -18 -37 -55 -46 -83 -19 -22 21 -22 21 -47 2
-32 -25 -51 -25 -84 1 -23 18 -28 19 -41 6 -8 -8 -11 -18 -7 -21 3 -4 -1 -4
-11 0 -19 7 -23 56 -18 207 1 35 3 37 34 37 l32 0 -23 18 c-12 9 -60 37 -105
61 l-83 44 -105 -59 -104 -59 38 -3 39 -3 -6 -122 c-2 -67 -5 -123 -5 -125 -1
-2 -14 6 -29 17 -28 20 -29 20 -45 0 -22 -25 -58 -24 -90 1 -17 14 -28 17 -33
9 -3 -6 -20 -17 -37 -24 -45 -19 -64 4 -83 98 -13 64 -14 89 -4 148 22 132
102 252 215 324 69 44 132 64 235 73 8 1 43 -3 78 -8z m-544 -368 c-1 -7 -2
-28 -2 -47 l-2 -35 -81 0 -80 0 6 48 c12 86 6 81 88 63 42 -10 72 -22 71 -29z
m1100 17 c3 -17 6 -47 6 -65 l0 -34 -74 0 -73 0 -7 41 c-4 23 -4 44 -1 48 5 5
94 31 136 40 4 0 9 -13 13 -30z m-654 -81 c0 -7 3 -30 6 -50 l7 -38 -38 0 -38
0 7 38 c3 20 6 43 6 50 0 6 11 12 25 12 14 0 25 -6 25 -12z m130 -18 c0 -27
-3 -30 -33 -30 -32 0 -33 2 -29 30 4 25 9 30 33 30 26 0 29 -4 29 -30z m-580
-37 c0 -16 3 -38 6 -49 5 -20 -1 -23 -66 -38 -40 -9 -75 -14 -78 -12 -8 9 -22
108 -16 118 3 4 39 8 80 8 l74 0 0 -27z m1108 -33 c-2 -33 -7 -62 -11 -66 -3
-4 -38 1 -78 11 -71 18 -71 18 -65 48 3 16 6 38 6 48 0 17 8 19 76 19 l76 0
-4 -60z m-658 -69 c0 -17 -5 -33 -12 -37 -7 -4 -8 -3 -4 4 6 11 -6 16 -26 13
-5 0 -8 10 -8 24 0 20 5 25 25 25 21 0 25 -5 25 -29z m130 3 c0 -20 -4 -25
-16 -20 -9 4 -23 1 -30 -5 -11 -9 -14 -6 -14 20 0 28 3 31 30 31 26 0 30 -4
30 -26z m-561 -6 c25 -68 27 -65 -48 -102 l-69 -35 -21 60 c-15 44 -17 61 -8
64 17 6 120 33 130 34 4 1 11 -9 16 -21z m1010 1 c65 -12 66 -15 51 -69 -19
-66 -21 -67 -92 -35 -34 15 -65 29 -67 31 -9 8 25 94 35 90 7 -3 39 -10 73
-17z m-334 -59 c-3 -5 6 -17 20 -26 21 -14 31 -15 51 -5 14 6 23 15 20 20 -10
16 30 6 58 -15 l29 -21 -30 -44 c-75 -109 -218 -179 -363 -179 -133 1 -233 43
-327 137 -35 35 -63 69 -63 76 1 6 17 22 36 34 l35 23 28 -21 c22 -16 32 -18
54 -10 15 6 27 15 27 21 0 16 28 12 38 -7 13 -23 71 -22 89 3 11 15 16 16 31
6 48 -34 61 -36 93 -13 l30 22 26 -20 c33 -27 42 -26 83 4 36 27 45 30 35 15z
m-620 -67 l23 -36 -56 -45 c-62 -51 -69 -50 -108 15 l-25 42 68 35 c37 19 70
32 72 30 2 -2 14 -20 26 -41z m914 7 l61 -30 -31 -51 c-17 -27 -54 -75 -82
-106 l-51 -56 -34 39 c-67 77 -69 81 -37 114 16 17 33 30 38 30 5 0 31 -19 59
-41 27 -23 51 -39 54 -37 2 3 -17 22 -43 43 -27 21 -52 42 -56 46 -11 8 34 79
49 79 7 0 39 -14 73 -30z m-844 -90 l28 -29 -43 -56 c-24 -31 -46 -58 -50 -60
-8 -5 -96 82 -89 89 26 25 106 85 115 86 5 0 23 -13 39 -30z m255 -131 c112
-18 246 9 334 67 39 26 39 26 55 6 9 -11 31 -38 49 -60 l33 -41 -43 -29 c-51
-34 -155 -78 -218 -92 -130 -28 -319 0 -435 65 -91 50 -91 52 -39 117 l45 57
77 -40 c47 -24 102 -44 142 -50z"/>
<path d="M948 1329 c-10 -10 -18 -28 -18 -38 0 -20 25 -35 42 -25 6 4 23 7 39
6 22 0 27 3 22 16 -4 13 -2 12 10 -3 20 -26 28 -17 18 21 -9 36 -44 41 -49 7
-5 -32 -18 -28 -25 7 -7 34 -15 36 -39 9z m22 -40 c0 -11 -4 -17 -10 -14 -5 3
-10 13 -10 21 0 8 5 14 10 14 6 0 10 -9 10 -21z"/>
<path d="M1126 1334 c-9 -8 -16 -21 -16 -27 1 -30 37 -51 61 -36 11 7 8 9 -9
9 -30 0 -39 26 -17 50 21 24 4 27 -19 4z"/>
<path d="M1176 1325 c4 -8 8 -15 10 -15 2 0 4 7 4 15 0 8 -4 15 -10 15 -5 0
-7 -7 -4 -15z"/>
<path d="M1197 1288 c-7 -26 -2 -33 31 -43 22 -6 23 -4 20 27 -4 41 -42 54
-51 16z m33 -12 c0 -3 -4 -8 -10 -11 -5 -3 -10 -1 -10 4 0 6 5 11 10 11 6 0
10 -2 10 -4z"/>
<path d="M837 1293 c-4 -3 -7 -18 -7 -32 l-1 -26 -20 28 c-11 15 -25 25 -30
21 -5 -3 -7 -10 -4 -15 4 -5 1 -9 -4 -9 -17 0 -13 -50 4 -56 15 -6 25 -3 55
15 8 5 28 14 43 20 27 11 27 12 11 36 -16 25 -34 32 -47 18z m20 -10 c-4 -3
-2 -12 4 -20 9 -9 8 -13 0 -13 -6 0 -11 2 -11 4 0 2 -3 11 -6 20 -4 10 -1 16
7 16 7 0 9 -3 6 -7z m-57 -59 c0 -8 -4 -12 -10 -9 -5 3 -10 13 -10 21 0 8 5
12 10 9 6 -3 10 -13 10 -21z"/>
<path d="M1273 1283 c-26 -10 -14 -51 19 -67 29 -15 32 -15 45 4 8 11 19 18
24 14 6 -4 3 -14 -8 -26 -12 -14 -14 -22 -6 -25 6 -2 21 -13 33 -23 12 -10 29
-16 37 -13 11 4 14 2 9 -6 -4 -6 -2 -18 4 -26 13 -16 35 -21 26 -6 -3 5 2 8
12 7 27 -2 22 38 -5 42 -15 2 -23 10 -23 22 0 23 -36 36 -56 19 -12 -10 -13
-9 -8 4 6 16 -15 77 -26 77 -3 0 -12 -14 -19 -32 -8 -18 -16 -27 -19 -20 -2 7
-8 10 -13 6 -11 -6 -24 24 -15 34 4 3 11 0 16 -8 5 -8 12 -11 16 -7 4 3 1 13
-6 22 -13 16 -17 17 -37 8z m144 -110 c-9 -9 -19 -14 -23 -11 -10 10 6 28 24
28 15 0 15 -1 -1 -17z"/>
<path d="M711 1216 c-6 -7 -9 -21 -5 -30 3 -9 2 -16 -4 -16 -6 0 -12 6 -15 13
-3 9 -9 8 -22 -5 -15 -14 -16 -20 -5 -33 17 -20 5 -32 -15 -15 -22 18 -31 4
-12 -18 25 -27 21 -37 -7 -18 -17 11 -27 12 -32 5 -4 -6 0 -15 7 -20 17 -11
59 -12 59 -1 0 12 68 82 80 82 5 0 10 5 10 10 0 6 -4 10 -9 10 -5 0 -12 8 -15
17 -6 15 -4 15 14 -2 26 -24 39 -11 15 15 -21 24 -29 25 -44 6z"/>
<path d="M1520 1120 c0 -5 -6 -10 -12 -10 -22 -1 -53 -29 -42 -40 6 -6 21 1
42 19 33 30 39 41 22 41 -5 0 -10 -4 -10 -10z"/>
<path d="M1506 1059 c-11 -10 -16 -22 -13 -26 4 -4 13 -1 19 5 17 17 38 15 32
-3 -4 -8 -1 -15 5 -15 15 0 13 21 -3 43 -16 21 -16 21 -40 -4z"/>
<path d="M567 1063 c-12 -11 -8 -40 7 -52 20 -16 46 -3 46 24 0 27 -36 46 -53
28z m38 -24 c4 -6 5 -12 2 -15 -7 -7 -37 7 -37 17 0 13 27 11 35 -2z"/>
<path d="M515 990 c-12 -23 -12 -30 -3 -30 7 0 25 -6 40 -14 23 -12 27 -12 32
0 3 8 -1 14 -10 14 -11 0 -14 5 -10 16 6 17 -9 44 -25 44 -5 0 -15 -13 -24
-30z m35 -5 c0 -9 -6 -12 -15 -9 -8 4 -12 10 -9 15 8 14 24 10 24 -6z"/>
<path d="M1523 994 c-2 -7 0 -22 7 -33 10 -20 12 -20 35 -5 23 15 37 43 15 29
-6 -3 -7 1 -4 9 5 12 0 15 -21 14 -15 -2 -29 -8 -32 -14z m32 -14 c3 -5 1 -10
-4 -10 -6 0 -11 5 -11 10 0 6 2 10 4 10 3 0 8 -4 11 -10z"/>
<path d="M762 276 c-10 -23 -9 -25 16 -23 19 2 27 8 27 22 0 29 -30 30 -43 1z
m38 4 c0 -5 -4 -10 -10 -10 -5 0 -10 5 -10 10 0 6 5 10 10 10 6 0 10 -4 10
-10z"/>
<path d="M1333 270 c6 -16 15 -30 19 -30 11 0 10 4 -4 35 -16 35 -29 31 -15
-5z"/>
<path d="M1265 270 c-8 -13 5 -60 17 -60 5 0 6 5 2 11 -4 8 1 9 17 4 20 -7 22
-5 12 6 -11 14 -13 19 -13 39 0 13 -27 13 -35 0z m25 -10 c0 -5 -5 -10 -11
-10 -5 0 -7 5 -4 10 3 6 8 10 11 10 2 0 4 -4 4 -10z"/>
<path d="M826 245 c-16 -24 -15 -25 3 -25 11 0 22 -6 24 -12 3 -7 6 4 6 25 1
43 -10 47 -33 12z"/>
<path d="M890 236 c0 -8 -3 -23 -7 -33 -6 -16 -5 -16 10 -4 15 12 17 11 17 -5
0 -14 4 -12 15 10 8 15 12 32 9 37 -9 14 -44 10 -44 -5z m30 -6 c0 -5 -4 -10
-10 -10 -5 0 -10 5 -10 10 0 6 5 10 10 10 6 0 10 -4 10 -10z"/>
<path d="M974 215 c3 -8 0 -14 -6 -12 -7 1 -13 -7 -15 -18 -3 -16 -2 -17 6 -6
8 12 12 12 25 2 13 -11 16 -11 16 2 0 24 -11 47 -22 47 -6 0 -8 -7 -4 -15z"/>
<path d="M1029 221 c8 -5 12 -18 8 -30 -3 -12 -2 -21 3 -21 4 0 10 14 12 30 4
25 1 30 -16 30 -16 0 -18 -2 -7 -9z"/>
<path d="M1093 203 c14 -41 23 -42 29 -1 4 25 3 28 -7 15 -10 -14 -12 -14 -22
1 -9 12 -9 8 0 -15z"/>
</g>
</svg>
